<svg width="105" height="85" viewBox="0 0 105 85" fill="none" xmlns="http://www.w3.org/2000/svg">
<path fill-rule="evenodd" clip-rule="evenodd" d="M80.689 12.8369C111.531 24.9889 113.494 67.2856 83.9011 82.0363L77.9564 85L44.3979 84.5955C11.1814 84.5955 11.1347 85.0996 10.1471 82.9446C9.149 81.5714 13.4009 65.5154 17.7311 46.7244C23.6768 20.9275 26.0578 12.2119 27.4539 11.1444C28.9562 9.9952 26.5252 10 52.3414 10C73.0446 10 75.5198 10.7996 80.689 12.8369Z" fill="white"/>
<g filter="url(#filter0_d)">
<path fill-rule="evenodd" clip-rule="evenodd" d="M70.689 2.83689C101.531 14.9889 103.494 57.2856 73.9011 72.0363L67.9564 75L34.3979 74.5955C1.18138 74.5955 1.1347 75.0996 0.147101 72.9446C-0.851001 71.5714 3.40094 55.5154 7.73112 36.7244C13.6768 10.9275 16.0578 2.2119 17.4539 1.14437C18.9562 -0.0047999 16.5252 3.29494e-07 42.3414 3.29494e-07C63.0446 3.29494e-07 65.5198 0.799622 70.689 2.83689Z" fill="white"/>
</g>
<path fill-rule="evenodd" clip-rule="evenodd" d="M50.1469 15.1124C51.0081 13.0058 53.9911 13.0058 54.8523 15.1124C55.0119 15.5028 55.5367 15.5691 55.7884 15.2306C57.1464 13.4044 60.0357 14.1463 60.346 16.4008C60.4034 16.8186 60.8953 17.0134 61.2232 16.7482C62.9927 15.317 65.6068 16.7542 65.3466 19.015C65.2984 19.434 65.7263 19.7449 66.1099 19.5696C68.1797 18.6235 70.3543 20.6655 69.54 22.7906C69.3891 23.1845 69.7263 23.5921 70.1414 23.5177C72.3815 23.116 73.9799 25.6347 72.6627 27.4905C72.4186 27.8345 72.6438 28.3131 73.0644 28.3443C75.334 28.5123 76.2558 31.3494 74.5185 32.8194C74.1965 33.0918 74.2956 33.6114 74.6953 33.7462C76.8517 34.4734 77.0391 37.4506 74.9907 38.4423C74.6111 38.6261 74.5779 39.154 74.9315 39.384C76.8394 40.6246 76.2804 43.5548 74.0498 44.006C73.6364 44.0896 73.4729 44.5927 73.7582 44.9034C75.2976 46.5795 74.0275 49.2786 71.7548 49.1609C71.3336 49.1391 71.0501 49.5858 71.2492 49.9576C72.3234 51.9639 70.4219 54.2624 68.2499 53.5831C67.8473 53.4573 67.4617 53.8194 67.5621 54.229C68.1036 56.4394 65.6902 58.1928 63.7553 56.9948C63.3967 56.7728 62.9332 57.0276 62.9285 57.4493C62.9033 59.725 60.1297 60.8231 58.5536 59.1815C58.2615 58.8773 57.7491 59.0088 57.6397 59.4161C57.0493 61.614 54.0898 61.9879 52.9714 60.0059C52.7641 59.6386 52.2351 59.6386 52.0278 60.0059C50.9095 61.9879 47.9499 61.614 47.3596 59.4161C47.2502 59.0088 46.7378 58.8773 46.4457 59.1815C44.8695 60.8231 42.0959 59.725 42.0707 57.4493C42.066 57.0276 41.6025 56.7728 41.2439 56.9948C39.309 58.1928 36.8956 56.4394 37.4371 54.229C37.5375 53.8194 37.1519 53.4573 36.7493 53.5831C34.5773 54.2624 32.6758 51.9639 33.75 49.9576C33.9491 49.5858 33.6656 49.1391 33.2444 49.1609C30.9717 49.2786 29.7016 46.5795 31.241 44.9034C31.5263 44.5927 31.3628 44.0896 30.9494 44.006C28.7188 43.5548 28.1599 40.6246 30.0677 39.384C30.4213 39.154 30.3881 38.6261 30.0085 38.4423C27.9602 37.4506 28.1475 34.4734 30.3039 33.7462C30.7036 33.6114 30.8027 33.0918 30.4807 32.8194C28.7434 31.3494 29.6652 28.5123 31.9348 28.3443C32.3554 28.3131 32.5806 27.8345 32.3365 27.4905C31.0193 25.6347 32.6177 23.116 34.8578 23.5177C35.2729 23.5921 35.6101 23.1845 35.4592 22.7906C34.6449 20.6655 36.8195 18.6235 38.8893 19.5696C39.2729 19.7449 39.7008 19.434 39.6526 19.015C39.3924 16.7541 42.0065 15.317 43.776 16.7482C44.1039 17.0134 44.5958 16.8186 44.6533 16.4008C44.9635 14.1463 47.8528 13.4044 49.2108 15.2306C49.4625 15.5691 49.9873 15.5028 50.1469 15.1124ZM53.001 15.8692C52.8175 15.4202 52.1817 15.4202 51.9982 15.8692C51.2494 17.701 48.7868 18.0121 47.6059 16.4241C47.3165 16.0349 46.7007 16.193 46.6346 16.6735C46.3648 18.6339 44.057 19.5477 42.5183 18.3032C42.1412 17.9982 41.5841 18.3045 41.6395 18.7863C41.8658 20.7523 39.8577 22.2113 38.0578 21.3886C37.6167 21.1869 37.1533 21.6221 37.3268 22.075C38.0349 23.923 36.4527 25.8355 34.5048 25.4863C34.0274 25.4007 33.6867 25.9374 33.9675 26.333C35.1129 27.9468 34.056 30.1927 32.0825 30.3388C31.5988 30.3746 31.4023 30.9793 31.7726 31.2926C33.2833 32.5708 32.8182 35.009 30.943 35.6413C30.4834 35.7963 30.4435 36.4308 30.88 36.6422C32.6612 37.5046 32.817 39.9818 31.158 41.0606C30.7514 41.325 30.8705 41.9495 31.3459 42.0457C33.2856 42.438 34.0526 44.7987 32.714 46.2562C32.3859 46.6134 32.6566 47.1887 33.141 47.1636C35.1173 47.0612 36.4473 49.157 35.5132 50.9016C35.2843 51.3292 35.6895 51.819 36.1524 51.6743C38.0412 51.0837 39.8506 52.7828 39.3797 54.7049C39.2643 55.176 39.7786 55.5497 40.191 55.2944C41.8735 54.2526 44.0487 55.4484 44.0706 57.4272C44.076 57.9122 44.6671 58.1462 45.003 57.7963C46.3736 56.3688 48.7777 56.9861 49.2911 58.8973C49.4169 59.3658 50.0477 59.4454 50.286 59.023C51.2585 57.2995 53.7407 57.2995 54.7132 59.023C54.9516 59.4454 55.5823 59.3658 55.7081 58.8973C56.2215 56.9861 58.6256 56.3688 59.9962 57.7963C60.3321 58.1462 60.9233 57.9122 60.9286 57.4272C60.9506 55.4484 63.1257 54.2526 64.8082 55.2944C65.2206 55.5497 65.7349 55.176 65.6195 54.7049C65.1486 52.7828 66.958 51.0836 68.8468 51.6743C69.3097 51.819 69.715 51.3292 69.486 50.9016C68.5519 49.157 69.8819 47.0612 71.8582 47.1636C72.3426 47.1887 72.6133 46.6134 72.2852 46.2562C70.9466 44.7987 71.7136 42.438 73.6533 42.0457C74.1287 41.9495 74.2478 41.325 73.8412 41.0606C72.1822 39.9818 72.338 37.5046 74.1192 36.6422C74.5557 36.4308 74.5158 35.7963 74.0562 35.6413C72.181 35.009 71.7159 32.5708 73.2266 31.2926C73.5969 30.9793 73.4004 30.3746 72.9168 30.3388C70.9432 30.1927 69.8864 27.9468 71.0317 26.333C71.3125 25.9374 70.9718 25.4007 70.4944 25.4863C68.5465 25.8355 66.9643 23.923 67.6724 22.075C67.8459 21.6221 67.3825 21.1869 66.9414 21.3886C65.1416 22.2113 63.1334 20.7523 63.3597 18.7863C63.4152 18.3045 62.858 17.9982 62.4809 18.3032C60.9422 19.5477 58.6344 18.6339 58.3646 16.6735C58.2985 16.193 57.6827 16.0349 57.3933 16.4241C56.2124 18.0121 53.7499 17.701 53.001 15.8692Z" fill="#23879A"/>
<path fill-rule="evenodd" clip-rule="evenodd" d="M52.5 51C59.9558 51 66 44.9558 66 37.5C66 30.0442 59.9558 24 52.5 24C45.0442 24 39 30.0442 39 37.5C39 44.9558 45.0442 51 52.5 51ZM52.5 53C61.0604 53 68 46.0604 68 37.5C68 28.9396 61.0604 22 52.5 22C43.9396 22 37 28.9396 37 37.5C37 46.0604 43.9396 53 52.5 53Z" fill="#30b4cc"/>
<path fill-rule="evenodd" clip-rule="evenodd" d="M45.5 30.5H48.5C49.0523 30.5 49.5 30.9477 49.5 31.5V40H47.5V32.5H45.5V30.5Z" fill="#23879A"/>
<path fill-rule="evenodd" clip-rule="evenodd" d="M56.7898 30.043C57.2115 30.1707 57.5 30.5594 57.5 31.0001V36.0001H59V38.0001H57.5V40.0001H55.5V38.0001H52.5C52.1312 38.0001 51.7923 37.7971 51.6183 37.4719C51.4443 37.1468 51.4634 36.7522 51.668 36.4454L55.668 30.4454C55.9124 30.0787 56.368 29.9153 56.7898 30.043ZM55.5 36.0001V34.3029L54.3685 36.0001H55.5Z" fill="#23879A"/>
<path d="M48.0088 44.3008H46.3506V46H45.3223V41.7344H48.1758V42.5283H46.3506V43.5098H48.0088V44.3008Z" fill="#23879A"/>
<path d="M50.3685 44.4941H49.8118V46H48.7835V41.7344H50.4622C50.9681 41.7344 51.3636 41.8467 51.6488 42.0713C51.9339 42.2959 52.0765 42.6133 52.0765 43.0234C52.0765 43.3203 52.0159 43.5664 51.8948 43.7617C51.7757 43.957 51.5882 44.1152 51.3323 44.2363L52.223 45.9561V46H51.1214L50.3685 44.4941ZM49.8118 43.7002H50.4622C50.6575 43.7002 50.804 43.6494 50.9017 43.5479C51.0013 43.4443 51.0511 43.3008 51.0511 43.1172C51.0511 42.9336 51.0013 42.79 50.9017 42.6865C50.8021 42.5811 50.6556 42.5283 50.4622 42.5283H49.8118V43.7002Z" fill="#23879A"/>
<path d="M55.5231 44.1924H53.9059V45.209H55.8161V46H52.8776V41.7344H55.8219V42.5283H53.9059V43.4277H55.5231V44.1924Z" fill="#23879A"/>
<path d="M59.0605 44.1924H57.4433V45.209H59.3535V46H56.415V41.7344H59.3593V42.5283H57.4433V43.4277H59.0605V44.1924Z" fill="#23879A"/>
<defs>
<filter id="filter0_d" x="0" y="0" width="103" height="83" filterUnits="userSpaceOnUse" color-interpolation-filters="sRGB">
<feFlood flood-opacity="0" result="BackgroundImageFix"/>
<feColorMatrix in="SourceAlpha" type="matrix" values="0 0 0 0 0 0 0 0 0 0 0 0 0 0 0 0 0 0 127 0"/>
<feOffset dx="4" dy="4"/>
<feGaussianBlur stdDeviation="2"/>
<feColorMatrix type="matrix" values="0 0 0 0 0 0 0 0 0 0 0 0 0 0 0 0 0 0 0.06 0"/>
<feBlend mode="multiply" in2="BackgroundImageFix" result="effect1_dropShadow"/>
<feBlend mode="normal" in="SourceGraphic" in2="effect1_dropShadow" result="shape"/>
</filter>
</defs>
</svg>
