<svg
  xmlns="http://www.w3.org/2000/svg"
  xmlns:xlink="http://www.w3.org/1999/xlink"
  viewBox="0 0 500 500"
  width="500"
  height="500"
  preserveAspectRatio="xMidYMid meet"
  style="
    width: 100%;
    height: 100%;
    transform: translate3d(0px, 0px, 0px);
    content-visibility: visible;
  "
>
  <defs>
    <clipPath id="__lottie_element_13">
      <rect
        width="500"
        height="500"
        x="0"
        y="0"
      ></rect>
    </clipPath>
  </defs>
  <g clip-path="url(#__lottie_element_13)">
    <g
      transform="matrix(1,0,0,1,222.81358337402344,262.5150146484375)"
      opacity="1"
      style="display: block"
    >
      <g
        opacity="1"
        transform="matrix(1,0,0,1,0,0)"
      >
        <path
          fill="#23879A"
          fill-opacity="1"
          d=" M-43.569000244140625,-51.88399887084961 C-43.569000244140625,-27.649999618530273 -43.569000244140625,-3.4149999618530273 -43.569000244140625,20.82200050354004 C-57.30799865722656,5.048999786376953 -71.0459976196289,-10.725000381469727 -84.78500366210938,-26.49799919128418 C-93.26499938964844,-36.233001708984375 -101.05999755859375,-46.696998596191406 -115.1780014038086,-47.7130012512207 C-137.718994140625,-49.33100128173828 -154.8159942626953,-26.510000228881836 -146.96400451660156,-5.326000213623047 C-144.4759979248047,1.3899999856948853 -139.677001953125,7.548999786376953 -135.88400268554688,13.550000190734863 C-128.24899291992188,25.624000549316406 -120.61399841308594,37.696998596191406 -112.97899627685547,49.77399826049805 C-95.6709976196289,77.14600372314453 -78.36799621582031,104.51799774169922 -61.060001373291016,131.88600158691406 C-56.64899826049805,138.86199951171875 -52.64500045776367,146.6739959716797 -47.31800079345703,153.0290069580078 C-39.22600173950195,162.68299865722656 -27.42300033569336,164.91700744628906 -26.82699966430664,179.84500122070312 C-26.531999588012695,187.26300048828125 -26.82699966430664,194.7449951171875 -26.82699966430664,202.16900634765625 C-26.82699966430664,210.98399353027344 -13.125,211 -13.125,202.16900634765625 C-13.125,188.4739990234375 -10.77400016784668,172.40199279785156 -18.812999725341797,160.43099975585938 C-24.90999984741211,151.3520050048828 -35.26300048828125,147.06300354003906 -41.189998626708984,137.68499755859375 C-55.034000396728516,115.79000091552734 -68.87799835205078,93.89700317382812 -82.72200012207031,72.00199890136719 C-97.625,48.43199920654297 -112.52899932861328,24.863000869750977 -127.43199920654297,1.2899999618530273 C-132.65699768066406,-6.968999862670898 -138.79400634765625,-15.517000198364258 -132.7030029296875,-25.549999237060547 C-125.30400085449219,-37.744998931884766 -110.55899810791016,-35.3120002746582 -102.32499694824219,-25.822999954223633 C-100.54499816894531,-23.773000717163086 -98.75900268554688,-21.729999542236328 -96.97599792480469,-19.683000564575195 C-78.77400207519531,1.2120000123977661 -60.57500076293945,22.104999542236328 -42.375999450683594,43 C-42.21799850463867,43.21699905395508 -42.0369987487793,43.40399932861328 -41.856998443603516,43.59299850463867 C-41.757999420166016,43.70800018310547 -41.65800094604492,43.81999969482422 -41.5620002746582,43.935001373291016 C-39.05500030517578,46.81100082397461 -35.832000732421875,46.625 -33.44300079345703,44.957000732421875 C-31.405000686645508,43.979000091552734 -29.868000030517578,42.040000915527344 -29.868000030517578,39.0890007019043 C-29.868000030517578,-20.981000900268555 -29.868000030517578,-81.0510025024414 -29.868000030517578,-141.12100219726562 C-29.868000030517578,-152.79100036621094 -29.868000030517578,-164.46099853515625 -29.868000030517578,-176.13099670410156 C-29.868000030517578,-177.93600463867188 -30.025999069213867,-179.81700134277344 -29.868000030517578,-181.61900329589844 C-28.28700065612793,-199.58200073242188 -3.5869998931884766,-199.58900451660156 -1.9869999885559082,-181.62899780273438 C-1.284999966621399,-173.74600219726562 -1.9869999885559082,-165.47900390625 -1.9869999885559082,-157.5709991455078 C-1.9869999885559082,-139.843994140625 -1.9869999885559082,-122.12100219726562 -1.9869999885559082,-104.39399719238281 C-1.9869999885559082,-94.7249984741211 -1.9869999885559082,-85.05500030517578 -1.9869999885559082,-75.38899993896484 C-2.234999895095825,-70.4749984741211 -1.9869999885559082,-65.48300170898438 -1.9869999885559082,-60.59700012207031 C-1.9869999885559082,-45.0880012512207 -1.9869999885559082,-29.57900047302246 -1.9869999885559082,-14.067000389099121 C-1.9869999885559082,-13.246999740600586 -1.9869999885559082,-12.42300033569336 -1.9869999885559082,-11.602999687194824 C-1.9869999885559082,-2.7880001068115234 11.71500015258789,-2.7720000743865967 11.71500015258789,-11.602999687194824 C11.71500015258789,-12.42300033569336 11.71500015258789,-13.246999740600586 11.71500015258789,-14.067000389099121 C11.71500015258789,-25.900999069213867 11.71500015258789,-37.73500061035156 11.71500015258789,-49.573001861572266 C11.71500015258789,-58.23899841308594 11.71500015258789,-66.90899658203125 11.71500015258789,-75.5780029296875 C12.621999740600586,-81.26799774169922 14.696000099182129,-86.26699829101562 19.13800048828125,-89.11199951171875 C30.562000274658203,-96.42400360107422 43.69300079345703,-87.88700103759766 44.65599822998047,-75.23899841308594 C45.01599884033203,-70.4990005493164 44.65599822998047,-65.58200073242188 44.65599822998047,-60.83000183105469 C44.65599822998047,-58.58399963378906 44.65599822998047,-56.33599853515625 44.65599822998047,-54.09000015258789 C44.65599822998047,-44.01100158691406 44.65599822998047,-33.93299865722656 44.65599822998047,-23.854000091552734 C44.65599822998047,-19.79400062561035 44.65599822998047,-15.732000350952148 44.65599822998047,-11.668999671936035 C44.65599822998047,-2.8540000915527344 58.356998443603516,-2.8380000591278076 58.356998443603516,-11.668999671936035 C58.356998443603516,-15.732000350952148 58.356998443603516,-19.79400062561035 58.356998443603516,-23.854000091552734 C58.356998443603516,-30.700000762939453 58.356998443603516,-37.54600143432617 58.356998443603516,-44.391998291015625 C58.356998443603516,-47.893001556396484 58.356998443603516,-51.393001556396484 58.356998443603516,-54.89099884033203 C58.7140007019043,-65.4020004272461 61.12699890136719,-76.10600280761719 74.45600128173828,-75.97599792480469 C92.43099975585938,-75.79900360107422 90.55500030517578,-56.77899932861328 90.55500030517578,-44.391998291015625 C90.55500030517578,-43.1619987487793 90.55500030517578,-41.93199920654297 90.55500030517578,-40.70199966430664 C89.21900177001953,-31.27199935913086 90.55500030517578,-20.691999435424805 90.55500030517578,-11.668999671936035 C90.55500030517578,-2.8540000915527344 104.25700378417969,-2.8380000591278076 104.25700378417969,-11.668999671936035 C104.25700378417969,-20.288999557495117 104.25700378417969,-28.906999588012695 104.25700378417969,-37.527000427246094 C105.66699981689453,-57.229000091552734 132.71200561523438,-58.167999267578125 134.29299926757812,-38.143001556396484 C135.39300537109375,-24.23699951171875 134.29299926757812,-9.913000106811523 134.29299926757812,4.054999828338623 C134.29299926757812,25.493999481201172 134.29299926757812,46.93199920654297 134.29299926757812,68.37100219726562 C134.29299926757812,96.04399871826172 132.5500030517578,122.3499984741211 118.78700256347656,147.36399841308594 C114.72100067138672,154.75 107.61100006103516,162.4810028076172 107.29399871826172,171.0760040283203 C106.91200256347656,181.41000366210938 107.29399871826172,191.8249969482422 107.29399871826172,202.16900634765625 C107.29399871826172,210.98399353027344 120.99600219726562,211 120.99600219726562,202.16900634765625 C120.99600219726562,192.47799682617188 122.98600006103516,180.64599609375 121.01399993896484,171.19700622558594 C122.29399871826172,169.88600158691406 123.76000213623047,166.08799743652344 124.51200103759766,164.80499267578125 C128.24899291992188,158.41600036621094 132.03500366210938,152.06900024414062 135.11900329589844,145.3260040283203 C147.53700256347656,118.16600036621094 147.99400329589844,90.55500030517578 147.99400329589844,61.52799987792969 C147.99400329589844,41.0890007019043 147.99400329589844,20.648000717163086 147.99400329589844,0.20900000631809235 C147.99400329589844,-19.281999588012695 154.13600158691406,-50.45500183105469 134.45799255371094,-62.584999084472656 C124.697998046875,-68.60199737548828 112.61799621582031,-67.84700012207031 103.60099792480469,-62.0880012512207 C101.20899963378906,-76.97899627685547 91.93699645996094,-89.67400360107422 74.45600128173828,-89.67400360107422 C67.20899963378906,-89.67400360107422 61.39500045776367,-87.45899963378906 56.86600112915039,-83.83999633789062 C55.96500015258789,-87.1510009765625 54.56100082397461,-90.34100341796875 52.297000885009766,-93.37899780273438 C45.19900131225586,-102.89900207519531 32.59400177001953,-107.54900360107422 21.013999938964844,-104.6449966430664 C17.643999099731445,-103.80000305175781 14.520000457763672,-102.375 11.71500015258789,-100.51399993896484 C11.71500015258789,-119.2969970703125 11.71500015258789,-138.0800018310547 11.71500015258789,-156.86000061035156 C11.71500015258789,-166.33099365234375 12.86400032043457,-176.6490020751953 11.307999610900879,-186.05799865722656 C6.791999816894531,-213.33599853515625 -32.60499954223633,-217.38099670410156 -41.92300033569336,-190.96600341796875 C-44.76499938964844,-182.9149932861328 -43.569000244140625,-172.9409942626953 -43.569000244140625,-164.55099487304688 C-43.569000244140625,-126.99700164794922 -43.569000244140625,-89.44100189208984 -43.569000244140625,-51.88399887084961z"
        ></path>
      </g>
    </g>
    <g
      transform="matrix(1,0,0,1,136.33099365234375,84.28600311279297)"
      opacity="1"
      style="display: block"
    >
      <g
        opacity="1"
        transform="matrix(1,0,0,1,0,0)"
      >
        <path
          fill="#23879A"
          fill-opacity="1"
          d=" M-94.4371109008789,4.077000141143799 C-94.34111022949219,4.203999996185303 -94.24411010742188,4.328999996185303 -94.14810943603516,4.455999851226807 C-94.09210968017578,4.5269999504089355 -94.04610443115234,4.6020002365112305 -93.9841079711914,4.672999858856201 C-84.21210479736328,17.479999542236328 -74.43611145019531,30.285999298095703 -64.6611099243164,43.09299850463867 C-59.38410949707031,50.0099983215332 -47.47810745239258,43.19300079345703 -52.833106994628906,36.17900085449219 C-60.31910705566406,26.367000579833984 -67.80810546875,16.55699920654297 -75.29410552978516,6.744999885559082 C-45.17410659790039,6.697999954223633 -8.212655067443848,6.6519999504089355 21.907344818115234,6.6020002365112305 C30.72234535217285,6.590000152587891 30.741344451904297,-7.111999988555908 21.907344818115234,-7.0960001945495605 C-8.191655158996582,-7.048999786376953 -45.12910842895508,-7.002999782562256 -75.22811126708984,-6.955999851226807 C-67.76410675048828,-16.69700050354004 -60.2971076965332,-26.44099998474121 -52.833106994628906,-36.185001373291016 C-47.47210693359375,-43.18000030517578 -59.365108489990234,-50.01100158691406 -64.6611099243164,-43.099998474121094 C-74.58210754394531,-30.15399932861328 -84.50410461425781,-17.20599937438965 -94.42510986328125,-4.260000228881836 C-95.60810852050781,-3.1510000228881836 -96.33710479736328,-1.7100000381469727 -96.29410552978516,-0.10999999940395355 C-96.35610961914062,1.5049999952316284 -95.62710571289062,2.9619998931884766 -94.4371109008789,4.077000141143799z"
        ></path>
      </g>
    </g>
    <g
      transform="matrix(1,0,0,1,338.94500732421875,84.1989974975586)"
      opacity="1"
      style="display: block"
    >
      <g
        opacity="1"
        transform="matrix(1,0,0,1,0,0)"
      >
        <path
          fill="#23879A"
          fill-opacity="1"
          d=" M-85.32772827148438,7.098999977111816 C-55.228729248046875,7.048999786376953 -41.29670715332031,7.002999782562256 -11.194708824157715,6.955999851226807 C-18.66170883178711,16.700000762939453 -26.126708984375,26.44099998474121 -33.59370803833008,36.185001373291016 C-38.954708099365234,43.18000030517578 -27.057708740234375,50.01100158691406 -21.761709213256836,43.099998474121094 C-11.84070873260498,30.15399932861328 -1.9227088689804077,17.20599937438965 7.998291015625,4.260000228881836 C9.181291580200195,3.1540000438690186 9.911291122436523,1.7130000591278076 9.868290901184082,0.10999999940395355 C9.930291175842285,-1.5049999952316284 9.203290939331055,-2.9619998931884766 8.01029109954834,-4.077000141143799 C7.917291164398193,-4.203999996185303 7.821290969848633,-4.328999996185303 7.7252912521362305,-4.455999851226807 C7.666291236877441,-4.5269999504089355 7.619291305541992,-4.6020002365112305 7.560291290283203,-4.670000076293945 C-2.2147088050842285,-17.479999542236328 -11.98970890045166,-30.285999298095703 -21.761709213256836,-43.09299850463867 C-27.04170799255371,-50.0099983215332 -38.945709228515625,-43.19300079345703 -33.59370803833008,-36.17900085449219 C-26.10470962524414,-26.367000579833984 -18.618709564208984,-16.554000854492188 -11.129709243774414,-6.744999885559082 C-41.25370788574219,-6.697999954223633 -55.20772933959961,-6.6519999504089355 -85.32772827148438,-6.6020002365112305 C-94.14273071289062,-6.590000152587891 -94.15872955322266,7.111000061035156 -85.32772827148438,7.098999977111816z"
        ></path>
      </g>
    </g>
  </g>
</svg>
